<svg xmlns="http://www.w3.org/2000/svg" viewBox="0 0 60 30"><rect width="60" height="30" fill="#B22234"/><g fill="#FFF"><rect y="2.307692" width="60" height="2.307692"/><rect y="6.923077" width="60" height="2.307692"/><rect y="11.538462" width="60" height="2.307692"/><rect y="16.153846" width="60" height="2.307692"/><rect y="20.769231" width="60" height="2.307692"/><rect y="25.384615" width="60" height="2.307692"/></g><rect width="25.714286" height="16.153846" fill="#3C3B6E"/><g fill="#FFF"><g id="s"><polygon points="2.142857,2.692308 2.571429,3.846154 3.428571,3.846154 2.857143,4.615385 3.285714,5.769231 2.142857,5.076923 1,5.769231 1.428571,4.615385 0.857143,3.846154 1.714286,3.846154"/></g><use xlink:href="#s" x="4.285714"/><use xlink:href="#s" x="8.571429"/><use xlink:href="#s" x="12.857143"/><use xlink:href="#s" x="17.142857"/><use xlink:href="#s" x="21.428571"/><use xlink:href="#s" y="2.692308"/><use xlink:href="#s" x="4.285714" y="2.692308"/><use xlink:href="#s" x="8.571429" y="2.692308"/><use xlink:href="#s" x="12.857143" y="2.692308"/><use xlink:href="#s" x="17.142857" y="2.692308"/><use xlink:href="#s" x="21.428571" y="2.692308"/><use xlink:href="#s" y="5.384615"/><use xlink:href="#s" x="4.285714" y="5.384615"/><use xlink:href="#s" x="8.571429" y="5.384615"/><use xlink:href="#s" x="12.857143" y="5.384615"/><use xlink:href="#s" x="17.142857" y="5.384615"/><use xlink:href="#s" x="21.428571" y="5.384615"/><use xlink:href="#s" y="8.076923"/><use xlink:href="#s" x="4.285714" y="8.076923"/><use xlink:href="#s" x="8.571429" y="8.076923"/><use xlink:href="#s" x="12.857143" y="8.076923"/><use xlink:href="#s" x="17.142857" y="8.076923"/><use xlink:href="#s" x="21.428571" y="8.076923"/><use xlink:href="#s" y="10.769231"/><use xlink:href="#s" x="4.285714" y="10.769231"/><use xlink:href="#s" x="8.571429" y="10.769231"/><use xlink:href="#s" x="12.857143" y="10.769231"/><use xlink:href="#s" x="17.142857" y="10.769231"/><use xlink:href="#s" x="21.428571" y="10.769231"/><use xlink:href="#s" y="13.461538"/><use xlink:href="#s" x="4.285714" y="13.461538"/><use xlink:href="#s" x="8.571429" y="13.461538"/><use xlink:href="#s" x="12.857143" y="13.461538"/><use xlink:href="#s" x="17.142857" y="13.461538"/><use xlink:href="#s" x="21.428571" y="13.461538"/></g></svg>